<?xml version="1.0" encoding="UTF-8"?>
<svg version="1.1" xmlns="http://www.w3.org/2000/svg" width="500" height="500">
<path d="M0 0 C3.77905324 2.61952497 5.86641733 4.98803053 7.91015625 9.0859375 C8.41836914 10.0869751 8.92658203 11.0880127 9.45019531 12.11938477 C10.24828613 13.73091431 10.24828613 13.73091431 11.0625 15.375 C12.22336722 17.66372166 13.38616227 19.9514664 14.55078125 22.23828125 C15.42210693 23.956521 15.42210693 23.956521 16.31103516 25.70947266 C18.70569321 30.37486746 21.21643497 34.97147613 23.75 39.5625 C28.70813239 48.58168214 33.55579547 57.65614749 38.375 66.75 C43.87127562 77.1174453 49.38150206 87.4769136 54.9375 97.8125 C55.52257324 98.90336914 56.10764648 99.99423828 56.71044922 101.11816406 C57.24814941 102.11686523 57.78584961 103.11556641 58.33984375 104.14453125 C58.80769287 105.01440674 59.27554199 105.88428223 59.75756836 106.78051758 C60.75803575 108.56775457 61.86385929 110.29578893 63 112 C63.51385254 110.99211426 64.02770508 109.98422852 64.55712891 108.94580078 C66.48813391 105.16060669 68.4238218 101.37782315 70.36083984 97.59570312 C71.1941248 95.96711222 72.02618544 94.33789421 72.85693359 92.70800781 C85.90705568 67.11029542 85.90705568 67.11029542 91 64 C96.62108628 63.46465845 99.30224406 63.70268344 104 67 C105.60229492 69.33398438 105.60229492 69.33398438 106.98046875 72.09375 C107.49891357 73.11331787 108.0173584 74.13288574 108.55151367 75.18334961 C109.09138916 76.27784424 109.63126465 77.37233887 110.1875 78.5 C111.35375145 80.80359568 112.52042098 83.10697974 113.6875 85.41015625 C114.25597656 86.54340332 114.82445312 87.67665039 115.41015625 88.84423828 C117.45419559 92.90155593 119.56013756 96.92342489 121.6875 100.9375 C122.47410304 102.42700692 123.26055094 103.91659578 124.046875 105.40625 C124.48966797 106.24414062 124.93246094 107.08203125 125.38867188 107.9453125 C127.03103294 111.05883093 128.66852071 114.17487659 130.3054657 117.29124451 C131.93622768 120.39400826 133.57011678 123.49511937 135.20449829 126.59597778 C136.02192385 128.14830338 136.83816103 129.70125537 137.65316772 131.25485229 C138.80588155 133.45158461 139.963004 135.6459419 141.12109375 137.83984375 C141.46758972 138.50258301 141.81408569 139.16532227 142.17108154 139.84814453 C143.89622126 143.10555382 145.6773034 146.13259023 148 149 C151.72035349 145.30458443 155.43724226 141.60572918 159.15112305 137.90380859 C160.41192215 136.6480018 161.67362176 135.39309836 162.9362793 134.13916016 C171.90628595 125.24906396 171.90628595 125.24906396 180.36010742 115.87353516 C183.77081961 111.97688407 187.4662522 108.34928159 191.125 104.6875 C192.30255859 103.49157227 192.30255859 103.49157227 193.50390625 102.27148438 C194.65052734 101.12196289 194.65052734 101.12196289 195.8203125 99.94921875 C196.84535889 98.91800903 196.84535889 98.91800903 197.89111328 97.8659668 C201.26483144 94.88086285 203.95242022 93.15237524 208.4375 92.5 C211.96829048 92.99554954 214.10969546 93.67787676 216.73167419 96.14308167 C221.3935631 102.96841546 221.77597051 113.8470173 223.05859375 121.87890625 C223.24395187 123.01335678 223.42931 124.14780731 223.62028503 125.31663513 C224.2311618 129.06444239 224.83454074 132.81341144 225.4375 136.5625 C225.75743039 138.53616633 226.07736612 140.50983184 226.39775848 142.48342323 C227.5591053 149.63735931 228.7128424 156.79250551 229.8640213 163.94808388 C230.78517196 169.67153587 231.71081494 175.39425167 232.63818359 181.11669922 C234.03307191 189.72463508 235.42318669 198.33333107 236.80984497 206.94259644 C237.35242612 210.31093142 237.89653343 213.6790146 238.44186401 217.04690552 C239.08744059 221.0353454 239.72905016 225.02440422 240.36767006 229.0139637 C240.60444196 230.4891426 240.8425507 231.96410763 241.08208275 233.43884087 C241.41075251 235.46386905 241.73454258 237.48962014 242.05712891 239.515625 C242.3316539 241.22153809 242.3316539 241.22153809 242.61172485 242.96191406 C242.95995122 245.68663554 243.07713434 248.25815585 243 251 C244.155 251.1134375 245.31 251.226875 246.5 251.34375 C264.45353167 253.61555014 281.88083107 263.99397267 295 276 C295.91265625 276.81984375 296.8253125 277.6396875 297.765625 278.484375 C314.80851457 294.57514784 327.85406547 319.22212353 329.16113281 342.92163086 C329.62251747 376.35860587 322.23249504 404.04812926 298.56640625 428.47998047 C278.93689827 448.27572751 252.66801506 458.66883538 224.84375 459.09375 C200.41289447 458.98062091 174.33409209 450.89105251 156.56640625 433.63671875 C154.1217786 431.68154173 154.1217786 431.68154173 151.328125 432.40625 C146.71098409 434.61727523 142.22350458 437.01238973 137.75 439.5 C136.78578125 440.03028809 135.8215625 440.56057617 134.828125 441.10693359 C130.12731548 443.69624463 125.44094991 446.31029221 120.765625 448.9453125 C119.95899414 449.39841797 119.15236328 449.85152344 118.32128906 450.31835938 C116.81516534 451.16614799 115.31172942 452.01873623 113.81152344 452.87695312 C107.4665985 456.45367538 102.1465195 458.29763055 94.75 458.375 C93.52796875 458.40335937 92.3059375 458.43171875 91.046875 458.4609375 C82.4920236 457.93690865 74.76329284 452.94381022 67.5625 448.6875 C65.71576141 447.61430476 63.86805627 446.54277151 62.01953125 445.47265625 C61.04580566 444.90820801 60.07208008 444.34375977 59.06884766 443.76220703 C53.66208216 440.65751066 48.20498538 437.64390735 42.75 434.625 C40.44782269 433.34912789 38.14573963 432.0730857 35.84375 430.796875 C34.13638672 429.85038086 34.13638672 429.85038086 32.39453125 428.88476562 C18.15865417 420.98049556 3.97151293 412.98983417 -10.19628906 404.96435547 C-17.60977339 400.7713171 -25.05103796 396.62962596 -32.5 392.5 C-41.35036233 387.59245311 -50.18734079 382.66247863 -59 377.6875 C-59.96744141 377.14222656 -60.93488281 376.59695313 -61.93164062 376.03515625 C-63.26485352 375.28105469 -63.26485352 375.28105469 -64.625 374.51171875 C-65.40101562 374.07303467 -66.17703125 373.63435059 -66.9765625 373.18237305 C-68.68800459 372.18231103 -70.35070126 371.0995325 -72 370 C-69.83237704 353.33729753 -67.28092726 336.74187974 -64.64553833 320.14813232 C-63.41138666 312.37703969 -62.1864299 304.60449324 -60.9609375 296.83203125 C-60.77333831 295.64287109 -60.77333831 295.64287109 -60.58194923 294.4296875 C-58.03036071 278.25162729 -55.54032715 262.06450108 -53.0625 245.875 C-49.39844896 221.94794945 -45.6572547 198.03364339 -41.875 174.125 C-41.74647518 173.3124538 -41.61795036 172.49990761 -41.48553085 171.6627388 C-40.34817058 164.4724335 -39.21033575 157.28220336 -38.07197571 150.09205627 C-35.99926209 136.99997906 -33.93189504 123.90707307 -31.875 110.8125 C-31.72179291 109.83819031 -31.56858582 108.86388062 -31.41073608 107.86004639 C-29.49075871 95.64274527 -27.60129021 83.42098099 -25.73510742 71.195364 C-25.39509213 68.96851709 -25.0546684 66.74173299 -24.71411133 64.51496887 C-24.48729878 63.03170867 -24.26049213 61.54844756 -24.03369141 60.06518555 C-23.92149387 59.33148271 -23.80929634 58.59777987 -23.69369888 57.84184361 C-23.0342513 53.52693617 -22.37816035 49.21153534 -21.72471714 44.89571476 C-21.41521705 42.85500896 -21.10413142 40.81455187 -20.79240417 38.77418518 C-20.41233079 36.28586064 -20.03475066 33.79715323 -19.66035461 31.30796814 C-19.13263568 27.86715785 -18.5755362 24.43312812 -18 21 C-17.89334141 20.34738693 -17.78668282 19.69477386 -17.67679214 19.02238464 C-17.33893195 16.99302028 -16.97864083 14.9687792 -16.61254883 12.94433594 C-16.29426872 11.13107819 -16.29426872 11.13107819 -15.96955872 9.28118896 C-14.64784125 4.80822133 -12.67580262 1.97020152 -8.625 -0.375 C-5.30935265 -1.16443985 -3.27357609 -0.95479302 0 0 Z " fill="#FECC31" transform="translate(155,21)"/>
<path d="M0 0 C3.77905324 2.61952497 5.86641733 4.98803053 7.91015625 9.0859375 C8.41836914 10.0869751 8.92658203 11.0880127 9.45019531 12.11938477 C10.24828613 13.73091431 10.24828613 13.73091431 11.0625 15.375 C12.22336722 17.66372166 13.38616227 19.9514664 14.55078125 22.23828125 C15.42210693 23.956521 15.42210693 23.956521 16.31103516 25.70947266 C18.70569321 30.37486746 21.21643497 34.97147613 23.75 39.5625 C28.70813239 48.58168214 33.55579547 57.65614749 38.375 66.75 C43.87127562 77.1174453 49.38150206 87.4769136 54.9375 97.8125 C55.52257324 98.90336914 56.10764648 99.99423828 56.71044922 101.11816406 C57.24814941 102.11686523 57.78584961 103.11556641 58.33984375 104.14453125 C58.80769287 105.01440674 59.27554199 105.88428223 59.75756836 106.78051758 C60.75803575 108.56775457 61.86385929 110.29578893 63 112 C63.51385254 110.99211426 64.02770508 109.98422852 64.55712891 108.94580078 C66.48813391 105.16060669 68.4238218 101.37782315 70.36083984 97.59570312 C71.1941248 95.96711222 72.02618544 94.33789421 72.85693359 92.70800781 C85.90705568 67.11029542 85.90705568 67.11029542 91 64 C96.62108628 63.46465845 99.30224406 63.70268344 104 67 C105.60229492 69.33398438 105.60229492 69.33398438 106.98046875 72.09375 C107.49891357 73.11331787 108.0173584 74.13288574 108.55151367 75.18334961 C109.09138916 76.27784424 109.63126465 77.37233887 110.1875 78.5 C111.35375145 80.80359568 112.52042098 83.10697974 113.6875 85.41015625 C114.25597656 86.54340332 114.82445312 87.67665039 115.41015625 88.84423828 C117.45420082 92.90156632 119.56051814 96.92321579 121.6875 100.9375 C122.06229492 101.64865967 122.43708984 102.35981934 122.82324219 103.0925293 C125.71236646 108.57391052 128.61444222 114.04843309 131.515625 119.5234375 C131.91807938 120.28308304 132.32053375 121.04272858 132.73518372 121.82539368 C134.77060621 125.66725457 136.80678523 129.50871031 138.84448242 133.34936523 C139.60337675 134.78107458 140.36224816 136.21279607 141.12109375 137.64453125 C141.46758972 138.29694794 141.81408569 138.94936462 142.17108154 139.62155151 C144.16688856 143.3891164 146.10843959 147.17905531 148 151 C147.28821837 151.60559309 147.28821837 151.60559309 146.56205732 152.22342038 C141.18758887 156.85365267 136.1292008 161.73203856 131.123703 166.75604248 C130.26552186 167.6133692 129.40734071 168.47069592 128.52315408 169.35400224 C126.16227721 171.71352501 123.80364542 174.07525067 121.44596732 176.43796706 C118.8950196 178.99325762 116.3411573 181.54563243 113.78765869 184.09837341 C109.37010566 188.51540358 104.95437886 192.93425256 100.53990746 197.35436249 C94.15415818 203.74826249 87.76562693 210.13937694 81.37642816 216.52982977 C71.00460871 226.90383486 60.63502146 237.2800682 50.2668457 247.65771484 C40.20616906 257.72757186 30.14444199 267.79637737 20.08129883 277.86376953 C19.46081475 278.48451633 18.84033067 279.10526313 18.20104405 279.74482045 C15.08762892 282.85954082 11.97419304 285.97424044 8.86074674 289.08892965 C-15.15558627 313.11489858 -39.1689717 337.14381142 -63.17987186 361.17520976 C-63.90894109 361.90489569 -64.63801032 362.63458162 -65.38917255 363.38637924 C-66.0185892 364.01633796 -66.64800585 364.64629669 -67.29649574 365.29534507 C-68.86399304 366.86390117 -70.43186581 368.43208064 -72 370 C-69.83237704 353.33729753 -67.28092726 336.74187974 -64.64553833 320.14813232 C-63.41138666 312.37703969 -62.1864299 304.60449324 -60.9609375 296.83203125 C-60.77333831 295.64287109 -60.77333831 295.64287109 -60.58194923 294.4296875 C-58.03036071 278.25162729 -55.54032715 262.06450108 -53.0625 245.875 C-49.39844896 221.94794945 -45.6572547 198.03364339 -41.875 174.125 C-41.74647518 173.3124538 -41.61795036 172.49990761 -41.48553085 171.6627388 C-40.34817058 164.4724335 -39.21033575 157.28220336 -38.07197571 150.09205627 C-35.99926209 136.99997906 -33.93189504 123.90707307 -31.875 110.8125 C-31.72179291 109.83819031 -31.56858582 108.86388062 -31.41073608 107.86004639 C-29.49075871 95.64274527 -27.60129021 83.42098099 -25.73510742 71.195364 C-25.39509213 68.96851709 -25.0546684 66.74173299 -24.71411133 64.51496887 C-24.48729878 63.03170867 -24.26049213 61.54844756 -24.03369141 60.06518555 C-23.92149387 59.33148271 -23.80929634 58.59777987 -23.69369888 57.84184361 C-23.0342513 53.52693617 -22.37816035 49.21153534 -21.72471714 44.89571476 C-21.41521705 42.85500896 -21.10413142 40.81455187 -20.79240417 38.77418518 C-20.41233079 36.28586064 -20.03475066 33.79715323 -19.66035461 31.30796814 C-19.13263568 27.86715785 -18.5755362 24.43312812 -18 21 C-17.89334141 20.34738693 -17.78668282 19.69477386 -17.67679214 19.02238464 C-17.33893195 16.99302028 -16.97864083 14.9687792 -16.61254883 12.94433594 C-16.29426872 11.13107819 -16.29426872 11.13107819 -15.96955872 9.28118896 C-14.64784125 4.80822133 -12.67580262 1.97020152 -8.625 -0.375 C-5.30935265 -1.16443985 -3.27357609 -0.95479302 0 0 Z M200 96 C200.66 96.33 201.32 96.66 202 97 C193.75 105.25 185.5 113.5 177 122 C177 119 177 119 179.11132812 116.5480957 C180.07697101 115.58292799 181.05087603 114.62598217 182.03125 113.67578125 C182.54175903 113.16951706 183.05226807 112.66325287 183.57824707 112.14164734 C185.21193407 110.52476595 186.85573744 108.91861874 188.5 107.3125 C189.6087547 106.21878969 190.71683647 105.12439674 191.82421875 104.02929688 C194.54173139 101.34487842 197.26836361 98.6700419 200 96 Z " fill="#FCA514" transform="translate(155,21)"/>
<path d="M0 0 C1.26005859 -0.01224609 2.52011719 -0.02449219 3.81835938 -0.03710938 C14.67865527 -0.05394704 24.9417001 1.0361842 35.1875 4.75 C35.8985791 5.00612061 36.6096582 5.26224121 37.34228516 5.52612305 C49.89065377 10.25218596 61.04591112 17.13519745 70.9375 26.1875 C72.30648437 27.41726563 72.30648437 27.41726563 73.703125 28.671875 C90.74601457 44.76264784 103.79156547 69.40962353 105.09863281 93.10913086 C105.56001747 126.54610587 98.16999504 154.23562926 74.50390625 178.66748047 C54.87439827 198.46322751 28.60551506 208.85633538 0.78125 209.28125 C-23.3720599 209.16940611 -46.12173623 201.12452509 -65.0625 186.1875 C-65.92230469 185.52234375 -66.78210938 184.8571875 -67.66796875 184.171875 C-71.25115713 181.20244646 -74.07129316 177.73730571 -77.0625 174.1875 C-77.76632812 173.39472656 -78.47015625 172.60195313 -79.1953125 171.78515625 C-96.77808645 151.41486936 -104.99065343 125.61965721 -104.3515625 98.8359375 C-101.95482927 68.58527755 -87.88680597 41.97536318 -65.0625 22.1875 C-51.53625806 11.26771338 -35.88700479 4.99914177 -19.0625 1.1875 C-18.30356445 1.010979 -17.54462891 0.83445801 -16.76269531 0.65258789 C-11.24104275 -0.29847433 -5.58800131 0.0027982 0 0 Z " fill="#757575" transform="translate(379.0625,270.8125)"/>
<path d="M0 0 C1.86743164 0.2890625 1.86743164 0.2890625 4 1 C5.66587855 3.65067968 7.06384036 6.20118958 8.4375 9 C9.32408798 10.74355609 10.21081371 12.48704213 11.09765625 14.23046875 C11.56703613 15.16552246 12.03641602 16.10057617 12.52001953 17.06396484 C15.09376829 22.16985442 17.73677247 27.23971139 20.375 32.3125 C21.18976807 33.88330322 21.18976807 33.88330322 22.02099609 35.48583984 C27.52710098 46.07400317 33.20718922 56.5660852 39 67 C39.57210205 68.03785645 39.57210205 68.03785645 40.15576172 69.09667969 C41.60355877 71.68789598 42.89001723 73.89001723 45 76 C-12.75 133.75 -70.5 191.5 -130 251 C-130.33 249.68 -130.66 248.36 -131 247 C-130.01 246.67 -129.02 246.34 -128 246 C-127.26929591 244.02249754 -126.61545818 242.01634711 -126 240 C-124.87246129 237.62703257 -123.72028719 235.29681467 -122.5078125 232.96875 C-122.16616562 232.30501373 -121.82451874 231.64127747 -121.47251892 230.95742798 C-120.36130234 228.80252654 -119.24344008 226.65115997 -118.125 224.5 C-117.34553091 222.99337381 -116.56615344 221.48670022 -115.78686523 219.97998047 C-111.19665411 211.12455425 -106.49999119 202.33683956 -101.67041016 193.609375 C-96.51626537 184.23630629 -91.68146878 174.70093173 -86.81274414 165.17773438 C-82.33839659 156.43052817 -77.82743369 147.71868608 -73.0625 139.125 C-67.61771312 129.29742155 -62.49214829 119.31315202 -57.375 109.3125 C-56.9576358 108.49695648 -56.54027161 107.68141296 -56.11026001 106.84115601 C-54.48126332 103.65767841 -52.8524094 100.47412784 -51.22386169 97.29042053 C-45.79713227 86.68731039 -40.2380209 76.15883059 -34.59765625 65.66796875 C-33.33577888 63.32039755 -32.07403655 60.97275431 -30.8125 58.625 C-30.4962265 58.03666382 -30.179953 57.44832764 -29.85409546 56.84216309 C-24.18314725 46.28598201 -18.65376919 35.66041338 -13.16699219 25.00756836 C-8.85138516 16.63119933 -4.48100227 8.28913839 0 0 Z " fill="#F4820F" transform="translate(216,137)"/>
<path d="M0 0 C0.89525391 0.59941406 0.89525391 0.59941406 1.80859375 1.2109375 C3.5 2.6875 3.5 2.6875 6 7 C6 12.61 6 18.22 6 24 C-18.09 24 -42.18 24 -67 24 C-67 7 -67 7 -64.625 2.75 C-48.25127761 -11.63439163 -17.84797135 -12.404973 0 0 Z " fill="#FBFBFB" transform="translate(389,388)"/>
<path d="M0 0 C12.13514143 -0.81352903 26.19515455 1.17994108 36 9 C39.51534667 12.36908404 41.28731957 14.37896535 41.48828125 19.3046875 C41.46009382 20.82899079 41.39569743 22.3527079 41.3125 23.875 C41.209375 26.55625 41.10625 29.2375 41 32 C30.44 32 19.88 32 9 32 C8.95875 28.885625 8.9175 25.77125 8.875 22.5625 C8.6092839 14.5211939 7.69370539 9.02596406 2 3 C1.34 2.01 0.68 1.02 0 0 Z " fill="#FAFAFA" transform="translate(396,380)"/>
<path d="M0 0 C4.91051575 0.66583264 6.32557087 1.89793308 9.6875 5.5 C10.5625 8.3125 10.5625 8.3125 10.6875 10.5 C9.19010417 9.23046875 7.69270833 7.9609375 6.1953125 6.69140625 C3.0439189 4.20131545 0.64771417 4.12457456 -3.3125 4.5 C-5.79277391 6.04030519 -5.79277391 6.04030519 -7.98356438 8.30358028 C-9.28088104 9.54506826 -9.28088104 9.54506826 -10.60440612 10.81163681 C-11.4980771 11.69879666 -12.39174808 12.58595651 -13.3125 13.5 C-14.62386944 14.77672898 -14.62386944 14.77672898 -15.9617312 16.07925045 C-18.85308393 18.91418991 -21.71651879 21.77520528 -24.57546997 24.64271545 C-25.67695969 25.74376811 -26.77866953 26.84460058 -27.88057792 27.94523424 C-30.88164379 30.94408158 -33.87961217 33.94600829 -36.87704849 36.94848287 C-40.11979849 40.19557544 -43.36546291 43.43975268 -46.61076355 46.68429565 C-52.22438468 52.29739395 -57.83618068 57.91231155 -63.44672012 63.52849007 C-71.55849328 71.64841091 -79.67304594 79.76554945 -87.78826664 87.88202458 C-100.95650609 101.05244942 -114.1225136 114.22510309 -127.28710938 127.39916992 C-140.0707643 140.19201224 -152.85547532 152.9837976 -165.64160156 165.77416992 C-166.82499145 166.9579539 -166.82499145 166.9579539 -168.03228821 168.1656527 C-171.99034351 172.1250131 -175.94841952 176.0843528 -179.90650582 180.04368222 C-212.71171391 212.85924694 -245.51329644 245.67843382 -278.3125 278.5 C-278.6425 277.84 -278.9725 277.18 -279.3125 276.5 C-274.30234972 270.61219804 -269.02501369 265.07010076 -263.55213928 259.61265564 C-262.69425684 258.75321321 -261.8363744 257.89377077 -260.95249552 257.00828463 C-258.5912223 254.64373212 -256.22775244 252.28141647 -253.86328518 249.92006052 C-251.30587472 247.36492414 -248.75135777 244.80689762 -246.19645691 242.24925232 C-241.19900174 237.24736191 -236.19886072 232.2481649 -231.19773585 227.2499439 C-227.13148687 223.18595778 -223.06622044 219.12099121 -219.00164604 215.05533028 C-218.42207839 214.4756094 -217.84251075 213.89588851 -217.24538044 213.29860033 C-216.0678248 212.12072495 -214.8902714 210.94284734 -213.71272021 209.76496751 C-202.68334793 198.73274702 -191.65091857 187.70358778 -180.6174333 176.67548097 C-171.16029226 167.22280736 -161.70577606 157.76751505 -152.25317383 148.31030273 C-141.26320818 137.31497969 -130.27161455 126.32128827 -119.2774362 115.33017737 C-118.10401195 114.15707165 -116.93058978 112.98396386 -115.75716972 111.81085396 C-115.17989718 111.23373569 -114.60262463 110.65661742 -114.00785898 110.06201072 C-109.94949268 106.00450607 -105.89228427 101.94584585 -101.83552742 97.8867321 C-96.88838999 92.93678354 -91.93946143 87.98863404 -86.98826248 83.04274791 C-84.46451244 80.52161717 -81.9415522 77.99970984 -79.42077255 75.47560883 C-76.6831823 72.73446626 -73.94169878 69.99723834 -71.19984436 67.26036072 C-70.41082279 66.46910842 -69.62180122 65.67785613 -68.8088699 64.86262649 C-64.67262442 60.74089579 -60.45485508 56.78110131 -56.01998734 52.98145801 C-53.58954323 50.87274493 -51.31727795 48.62441108 -49.0456543 46.34667969 C-48.58113358 45.88230499 -48.11661285 45.4179303 -47.63801575 44.93948364 C-46.13519444 43.43597749 -44.63592703 41.92898307 -43.13671875 40.421875 C-42.07938832 39.3626744 -41.02183312 38.30369813 -39.96406555 37.24493408 C-37.20283712 34.47992013 -34.44462484 31.71191705 -31.68707275 28.9432373 C-28.87589591 26.12178844 -26.06185158 23.3032027 -23.24804688 20.484375 C-18.31033874 15.53713959 -13.37510982 10.58744305 -8.44169617 5.63592529 C-7.73906143 4.93106995 -7.0364267 4.2262146 -6.3125 3.5 C-5.79053543 2.91970032 -5.26857086 2.33940063 -4.73078918 1.74151611 C-3.3125 0.5 -3.3125 0.5 0 0 Z " fill="#FCCF56" transform="translate(363.3125,113.5)"/>
<path d="M0 0 C4.4677531 2.27767805 8.77123595 5.39072626 11 10 C11.89601364 15.15792201 11.79200111 20.18754994 9.4375 24.9375 C5.71196967 29.61829452 2.45380519 31.69327435 -3.5 32.4375 C-9.02536109 31.74682986 -13.1971691 30.24852879 -16.875 26 C-20.30215539 21.16166298 -20.71176901 16.77323751 -20 11 C-15.76911042 2.69492045 -9.33282112 -1.25975342 0 0 Z " fill="#FCFCFC" transform="translate(363,338)"/>
<path d="M0 0 C3.54862773 3.05347037 6.27009781 5.70021889 7.03515625 10.48828125 C7.22784807 15.47313478 6.55296217 19.10982215 3.6875 23.3125 C0.81680395 26.27969004 -2.07131901 28.92693809 -6.3125 29.3125 C-7.983125 29.4671875 -7.983125 29.4671875 -9.6875 29.625 C-15.6017333 29.1151523 -19.49782087 25.69231678 -23.3125 21.3125 C-24.8768637 16.61940889 -25.13115276 12.19779371 -24.3125 7.3125 C-21.95510491 3.18207819 -18.88462003 0.3467895 -14.9375 -2.25 C-9.49775718 -3.1566238 -4.91043564 -2.50154268 0 0 Z " fill="#FCFCFC" transform="translate(409.3125,340.6875)"/>
<path d="M0 0 C4.00446613 1.2375382 7.53416247 2.6960487 11.17578125 4.765625 C12.15530762 5.31855225 13.13483398 5.87147949 14.14404297 6.44116211 C15.18963379 7.03807861 16.23522461 7.63499512 17.3125 8.25 C19.57154718 9.52746295 21.83066366 10.80480336 24.08984375 12.08203125 C25.25251579 12.74156812 26.41511352 13.40123597 27.57763672 14.06103516 C32.83300041 17.03849973 38.10375234 19.98827669 43.375 22.9375 C44.39811279 23.51072998 45.42122559 24.08395996 46.4753418 24.67456055 C54.18114943 28.9899809 61.90146431 33.27890913 69.625 37.5625 C77.93699574 42.17297692 86.23130234 46.81231388 94.5 51.5 C105.17221857 57.55005294 115.89070146 63.51492053 126.62109375 69.4609375 C130.59799847 71.66471891 134.57006904 73.87659124 138.53515625 76.1015625 C139.36233154 76.56473877 140.18950684 77.02791504 141.04174805 77.50512695 C142.54066027 78.34500086 144.03832942 79.18709926 145.53442383 80.03198242 C151.46850291 83.35119175 155.77137762 85.29764535 162.625 85.375 C163.75164062 85.40335937 164.87828125 85.43171875 166.0390625 85.4609375 C175.28057245 84.38549551 183.17575095 80.07232742 191.0625 75.375 C192.87961976 74.31409541 194.69734047 73.25421954 196.515625 72.1953125 C197.42248047 71.66454102 198.32933594 71.13376953 199.26367188 70.58691406 C203.58106456 68.08307283 207.94427271 65.66373068 212.3125 63.25 C213.47761108 62.60490479 213.47761108 62.60490479 214.66625977 61.94677734 C216.443512 60.96332243 218.22164562 59.98146053 220 59 C220.99 59.99 221.98 60.98 223 62 C222.24605957 62.40202637 221.49211914 62.80405273 220.71533203 63.21826172 C217.18437588 65.10226253 213.65451323 66.98829794 210.125 68.875 C209.48906921 69.21469818 208.85313843 69.55439636 208.19793701 69.90438843 C199.57723585 74.51149714 190.9841883 79.1583505 182.50830078 84.02880859 C176.15809107 87.62668342 171.06616532 89.29847107 163.75 89.375 C161.91695313 89.41753906 161.91695313 89.41753906 160.046875 89.4609375 C151.4920236 88.93690865 143.76329284 83.94381022 136.5625 79.6875 C134.71576141 78.61430476 132.86805627 77.54277151 131.01953125 76.47265625 C130.04580566 75.90820801 129.07208008 75.34375977 128.06884766 74.76220703 C122.66208216 71.65751066 117.20498538 68.64390735 111.75 65.625 C109.44782269 64.34912789 107.14573963 63.0730857 104.84375 61.796875 C103.70550781 61.16587891 102.56726563 60.53488281 101.39453125 59.88476562 C87.15781538 51.98002983 72.96811212 43.99173475 58.80151367 35.9621582 C52.55139079 32.42549029 46.27785854 28.93336505 39.99291992 25.45898438 C26.2072115 17.83764902 12.5665003 10.00477642 -1 2 C-0.67 1.34 -0.34 0.68 0 0 Z " fill="#EAAA2A" transform="translate(86,390)"/>
<path d="M0 0 C4.76624535 1.73318013 6.27709039 4.81220435 8.3984375 9.16015625 C9 11 9 11 8 13 C7.50693359 12.15115234 7.50693359 12.15115234 7.00390625 11.28515625 C4.15196963 6.83515484 4.15196963 6.83515484 -0.2265625 4.10546875 C-4.16354302 3.50636302 -6.33595113 3.63910388 -9.875 5.5625 C-12.18724405 8.21477994 -13.60851088 10.77760414 -15 14 C-15.66 14 -16.32 14 -17 14 C-17.10183594 14.86882812 -17.20367187 15.73765625 -17.30859375 16.6328125 C-18.04534793 20.22084698 -19.24749539 22.70839622 -21.0625 25.875 C-21.61035156 26.84179688 -22.15820312 27.80859375 -22.72265625 28.8046875 C-23.14417969 29.52914062 -23.56570312 30.25359375 -24 31 C-24.66 30.34 -25.32 29.68 -26 29 C-23.95656265 24.90685571 -21.88703594 20.82745898 -19.8125 16.75 C-19.23435547 15.59113281 -18.65621094 14.43226562 -18.06054688 13.23828125 C-17.49013672 12.12324219 -16.91972656 11.00820312 -16.33203125 9.859375 C-15.81358643 8.83295898 -15.2951416 7.80654297 -14.76098633 6.74902344 C-10.86576063 0.66830233 -6.89074765 -1.10644119 0 0 Z " fill="#F3B03F" transform="translate(254,85)"/>
<path d="M0 0 C5.45976424 3.06279458 7.70647239 8.39793683 10 14 C10 14.66 10 15.32 10 16 C9.34 16 8.68 16 8 16 C7.68546875 15.38511719 7.3709375 14.77023438 7.046875 14.13671875 C6.61890625 13.32847656 6.1909375 12.52023438 5.75 11.6875 C5.33234375 10.88699219 4.9146875 10.08648437 4.484375 9.26171875 C2.8741638 6.80826537 1.51139478 5.50209839 -1 4 C-6.17531202 3.28318285 -6.17531202 3.28318285 -10.8515625 5.125 C-12.69952148 6.62446175 -12.69952148 6.62446175 -15 9 C-14.70540991 5.46491897 -14.25118587 4.23796556 -11.625 1.75 C-7.37705309 -1.08196461 -4.87969926 -1.26872181 0 0 Z " fill="#F5B241" transform="translate(155,21)"/>
<path d="M0 0 C3.76345461 1.25448487 3.92391652 2.21287777 5.671875 5.671875 C6.41679199 7.12557495 6.41679199 7.12557495 7.17675781 8.60864258 C7.69592773 9.64529053 8.21509766 10.68193848 8.75 11.75 C9.82216204 13.85324943 10.89507503 15.95611624 11.96875 18.05859375 C12.48695313 19.07937012 13.00515625 20.10014648 13.5390625 21.15185547 C15.89459446 25.74404061 18.38679114 30.2566688 20.890625 34.76953125 C22 37 22 37 22 39 C21.34 39 20.68 39 20 39 C13.21026713 26.06004817 6.46680852 13.10479727 0 0 Z " fill="#F8B33F" transform="translate(165,39)"/>
<path d="M0 0 C2.77399816 3.42882073 4.7987241 7.17131364 6.828125 11.06640625 C7.18138855 11.74170883 7.5346521 12.41701141 7.89862061 13.11277771 C8.64017178 14.53465946 9.37965599 15.95762089 10.1171875 17.3815918 C11.25062649 19.56370613 12.3985095 21.73782162 13.546875 23.91210938 C14.26652728 25.29640631 14.98530798 26.68115677 15.703125 28.06640625 C16.04885559 28.71646133 16.39458618 29.36651642 16.75079346 30.03627014 C17.57797695 31.65351923 18.29839288 33.32444798 19 35 C18.67 35.99 18.34 36.98 18 38 C11.24317184 25.84703597 4.62828272 13.7230898 -1 1 C-0.67 0.67 -0.34 0.34 0 0 Z " fill="#FBB33B" transform="translate(264,99)"/>
<path d="M0 0 C3.96873434 1.32291145 4.29905037 2.91149738 6.1875 6.5625 C6.71730469 7.57441406 7.24710938 8.58632812 7.79296875 9.62890625 C8.19128906 10.41136719 8.58960938 11.19382813 9 12 C9.25394531 11.43410156 9.50789062 10.86820313 9.76953125 10.28515625 C10.11371094 9.55167969 10.45789063 8.81820312 10.8125 8.0625 C11.31716797 6.96615234 11.31716797 6.96615234 11.83203125 5.84765625 C13 4 13 4 16 3 C14.31326082 7.49797113 12.18326108 11.72886302 10 16 C9.34 16 8.68 16 8 16 C5.36 10.72 2.72 5.44 0 0 Z " fill="#FDB43E" transform="translate(209,121)"/>
<path d="M0 0 C3.7910119 1.44950455 7.3874638 3.15172566 11 5 C10.67 6.32 10.34 7.64 10 9 C8.32572385 8.07615834 6.66071997 7.13549431 5 6.1875 C4.071875 5.66542969 3.14375 5.14335937 2.1875 4.60546875 C1.1046875 3.81076172 1.1046875 3.81076172 0 3 C0 2.01 0 1.02 0 0 Z " fill="#E4A527" transform="translate(215,462)"/>
<path d="M0 0 C0.66 0 1.32 0 2 0 C0.63408831 3.54243452 -0.90931484 6.92627929 -2.625 10.3125 C-3.07101563 11.19550781 -3.51703125 12.07851562 -3.9765625 12.98828125 C-4.31429687 13.65214844 -4.65203125 14.31601563 -5 15 C-5.66 14.34 -6.32 13.68 -7 13 C-3.535 6.565 -3.535 6.565 0 0 Z " fill="#FEB73E" transform="translate(235,101)"/>
<path d="M0 0 C3.0831351 1.19899698 6.06279492 2.47700477 9 4 C8.67 4.99 8.34 5.98 8 7 C4.7 5.35 1.4 3.7 -2 2 C-1.34 1.34 -0.68 0.68 0 0 Z " fill="#F4B22F" transform="translate(124,411)"/>
<path d="M0 0 C3.40312738 1.05875074 6.01353231 2.00902154 9 4 C9 4.66 9 5.32 9 6 C5.26512223 5.5020163 3.18762365 5.12508244 0 3 C0 2.01 0 1.02 0 0 Z " fill="#E0A329" transform="translate(181,443)"/>
<path d="M0 0 C3 1 3 1 4.38671875 3.21484375 C4.81597656 4.11332031 5.24523437 5.01179688 5.6875 5.9375 C6.12449219 6.83339844 6.56148437 7.72929688 7.01171875 8.65234375 C8 11 8 11 8 13 C7.34 13 6.68 13 6 13 C4.99491199 11.21118264 3.99607264 9.41885304 3 7.625 C2.1646875 6.12839844 2.1646875 6.12839844 1.3125 4.6015625 C0 2 0 2 0 0 Z " fill="#FEB740" transform="translate(194,93)"/>
<path d="M0 0 C4.75 1.875 4.75 1.875 7 3 C7 3.99 7 4.98 7 6 C4.0625 5.25 4.0625 5.25 1 4 C0.125 1.875 0.125 1.875 0 0 Z " fill="#F3B130" transform="translate(101,398)"/>
<path d="M0 0 C4.67692308 1.47692308 4.67692308 1.47692308 6.3125 4.125 C6.539375 4.74375 6.76625 5.3625 7 6 C4.0625 5.25 4.0625 5.25 1 4 C0.125 1.875 0.125 1.875 0 0 Z " fill="#E7A837" transform="translate(108,402)"/>
<path d="M0 0 C2.475 0.99 2.475 0.99 5 2 C5 2.99 5 3.98 5 5 C3.02 4.34 1.04 3.68 -1 3 C-0.67 2.01 -0.34 1.02 0 0 Z " fill="#F3B12D" transform="translate(144,422)"/>
</svg>
