<?xml version="1.0" encoding="UTF-8"?>
<svg version="1.1" xmlns="http://www.w3.org/2000/svg" width="512" height="512">
<path d="M0 0 C1.35798762 -0.00679667 1.35798762 -0.00679667 2.74340934 -0.01373065 C5.77175598 -0.02637335 8.79992276 -0.02475435 11.82829285 -0.02310181 C14.00174185 -0.02908713 16.17518873 -0.03589268 18.34863281 -0.04345703 C24.24953144 -0.06112376 30.15037205 -0.0658127 36.05129457 -0.0670886 C39.73896211 -0.06851037 43.42661491 -0.07278046 47.11427879 -0.07808304 C59.98217581 -0.0965855 72.8500314 -0.10475337 85.71794128 -0.10317993 C97.70811313 -0.10197846 109.69803803 -0.12308145 121.6881693 -0.15466726 C131.98644348 -0.18082834 142.28465887 -0.19154729 152.58296603 -0.19026911 C158.73183595 -0.18975944 164.88054591 -0.19544607 171.02938271 -0.21662521 C176.81359805 -0.23600458 182.59750078 -0.23613386 188.38172722 -0.22159195 C190.50169456 -0.21950241 192.62168145 -0.22421337 194.7416153 -0.23631287 C197.64182991 -0.2517905 200.54096999 -0.2424403 203.44116211 -0.22705078 C204.69138545 -0.24248147 204.69138545 -0.24248147 205.96686584 -0.25822389 C215.17464649 -0.1506863 223.27698135 3.9692529 229.91105652 10.26742554 C236.66452802 18.3654796 239.37685582 27.00258739 239.29873657 37.43792725 C239.30681488 38.75476578 239.30681488 38.75476578 239.31505638 40.09820712 C239.32927056 43.01592464 239.32224845 45.93318426 239.31510925 48.85092163 C239.32081626 50.9526048 239.3277818 53.05428487 239.33590698 55.15596008 C239.35381749 60.84817781 239.35267385 66.5402412 239.3469646 72.23247862 C239.34386951 76.9913082 239.34996881 81.75010828 239.35600334 86.50893366 C239.37004024 97.73932842 239.36849439 108.96964709 239.35710144 120.20004272 C239.34562265 131.77044949 239.35969392 143.3406244 239.38649791 154.91100061 C239.40867835 164.85948355 239.41528695 174.80789384 239.4094215 184.75639975 C239.40605617 190.69177594 239.40843895 196.62700355 239.42567253 202.56235886 C239.44117668 208.14554825 239.43714739 213.72839509 239.41836739 219.31157112 C239.41469105 221.35490543 239.41776194 223.39826532 239.42825317 225.441576 C239.50338938 241.29140401 237.9814027 252.84563465 226.60490417 264.66293335 C223.10882159 268.15968555 219.55431445 271.59314021 215.99113464 275.02133179 C214.69272644 276.29170288 214.69272644 276.29170288 213.36808777 277.58773804 C212.58409607 278.34328979 211.80010437 279.09884155 210.99235535 279.87728882 C206.85279378 284.63110791 205.53632708 288.78319822 205.53251648 295.03384399 C205.52572129 296.01712823 205.52572129 296.01712823 205.51878881 297.02027678 C205.50721834 299.2034513 205.51678973 301.38600674 205.52629089 303.56918335 C205.52218317 305.14003391 205.51672111 306.71088143 205.51000977 308.28172302 C205.49830083 311.65876315 205.49579476 315.03563991 205.50036621 318.41269684 C205.50718813 323.75919394 205.4912857 329.10547706 205.4719696 334.45193481 C205.4341336 345.80708687 205.42132389 357.16222013 205.41105652 368.51742554 C205.39997357 380.76375818 205.38452612 393.00999183 205.34034395 405.25625682 C205.32204712 410.56398816 205.31807427 415.871474 205.32527924 421.17922926 C205.32680796 424.49136315 205.31597377 427.80337579 205.30190086 431.11547661 C205.29791965 432.64320606 205.29898634 434.17095897 205.3056736 435.69867897 C205.35558635 448.05772799 204.16467931 458.57526283 195.91105652 468.26742554 C186.10357204 477.77939259 176.33471626 478.71774124 163.09489441 478.67147827 C161.61226896 478.67718979 160.12964791 478.68415706 158.64703369 478.692276 C154.64282662 478.71013594 150.63883954 478.70905267 146.63460469 478.70333362 C143.28237201 478.70023146 139.93018097 478.70634557 136.57795423 478.71237236 C128.66527108 478.72639235 120.75269595 478.7248773 112.8400116 478.71347046 C104.69708479 478.70199057 96.5544874 478.71606839 88.41160399 478.74286693 C81.40068506 478.76506991 74.3898692 478.77165102 67.37891763 478.76579052 C63.20021478 478.76243085 59.02172304 478.76476983 54.84305 478.78204155 C50.91203599 478.79758234 46.98150763 478.79347694 43.05051231 478.7747364 C41.61469232 478.77107019 40.17883575 478.77410111 38.74304962 478.78462219 C26.7491334 478.86574605 16.76703034 476.81867768 7.91105652 468.26742554 C-0.88648192 457.87396176 -1.52928933 446.56348657 -1.45783997 433.46395874 C-1.46031212 431.88765197 -1.46415472 430.31134685 -1.46925354 428.73504639 C-1.4775491 425.3591543 -1.47682048 421.98343115 -1.46906853 418.60753822 C-1.45742742 413.26575117 -1.46969515 407.92417885 -1.48568726 402.58241272 C-1.52177652 389.32117987 -1.5281096 376.05995308 -1.52558899 362.79867554 C-1.52387694 352.47692405 -1.5310071 342.15534941 -1.56556755 331.83364743 C-1.58233678 326.52668122 -1.58058945 321.22014719 -1.56474483 315.91318285 C-1.55894113 312.61100085 -1.56969918 309.30902319 -1.58499146 306.0068779 C-1.58871173 304.47949381 -1.58562681 302.95207516 -1.57512093 301.42472267 C-1.51400401 291.90327013 -1.87255753 285.91878048 -8.46736145 278.64364624 C-9.76117737 277.43067871 -9.76117737 277.43067871 -11.08113098 276.19320679 C-12.04379128 275.26851437 -13.006017 274.34336936 -13.96784973 273.41781616 C-15.4582495 272.00127821 -16.95301977 270.59011493 -18.45661926 269.18759155 C-27.16443345 261.02706822 -34.78642011 251.87559013 -35.22316456 239.44822598 C-35.2325741 237.86490486 -35.23647162 236.28154544 -35.2361145 234.69819641 C-35.23979119 233.82457618 -35.24346788 232.95095595 -35.24725598 232.05086237 C-35.25828612 229.11775445 -35.26213556 226.18468196 -35.26594543 223.2515564 C-35.27221067 221.15061328 -35.27885752 219.04967127 -35.28585815 216.94873047 C-35.30689652 210.04325125 -35.31726138 203.13777183 -35.32722473 196.23226929 C-35.33127258 193.85388235 -35.33538951 191.47549554 -35.33957481 189.09710884 C-35.35862719 177.9212881 -35.37285727 166.74547396 -35.38118678 155.5696401 C-35.39095516 142.67654709 -35.4172642 129.78362594 -35.45768768 116.89059347 C-35.48787055 106.92099518 -35.50265779 96.95144609 -35.5059678 86.981803 C-35.50831609 81.02956395 -35.51724787 75.07750849 -35.54242897 69.12531853 C-35.56575204 63.52170533 -35.56992574 57.91839606 -35.55966759 52.31474686 C-35.55917313 50.26334305 -35.56546696 48.21192407 -35.57922363 46.16056633 C-35.66117902 33.21000249 -35.47725794 21.66836673 -26.92488098 11.11898804 C-19.00353282 3.13022414 -11.04847725 -0.04072891 0 0 Z M-14.46394348 25.32992554 C-17.12899817 30.1475244 -17.23735404 34.13673625 -17.2361145 39.50880432 C-17.23979119 40.35918551 -17.24346788 41.2095667 -17.24725598 42.08571702 C-17.25830233 44.94601589 -17.26213828 47.80627844 -17.26594543 50.66659546 C-17.27220938 52.71314612 -17.27885612 54.75969563 -17.28585815 56.8062439 C-17.30327451 62.37460368 -17.31382174 67.94295486 -17.32206368 73.51133513 C-17.32721268 76.98975445 -17.33328847 80.46817109 -17.33957481 83.94658852 C-17.35862899 94.82820771 -17.37285944 105.70982011 -17.38118678 116.59145278 C-17.39095988 129.15518486 -17.41728048 141.71874079 -17.45768768 154.2824108 C-17.48784219 163.99122238 -17.50265505 173.69998345 -17.5059678 183.40884095 C-17.50831909 189.20841775 -17.51729001 195.00780641 -17.54242897 200.80733299 C-17.56570281 206.26482796 -17.56994554 211.72201082 -17.55966759 217.17954254 C-17.55917195 219.18060405 -17.56550062 221.18168088 -17.57922363 223.18269539 C-17.59693786 225.91921289 -17.5898387 228.65460978 -17.57669067 231.39112854 C-17.58765992 232.17898764 -17.59862917 232.96684675 -17.60993081 233.77858037 C-17.52969863 240.71736197 -15.22981317 245.78922932 -10.71052551 251.02059937 C-9.84798157 251.83037231 -8.98543762 252.64014526 -8.09675598 253.47445679 C-7.13442712 254.40079634 -6.17219045 255.32723167 -5.21003723 256.25375366 C-3.71761753 257.66586488 -2.22101437 259.07330453 -0.7212677 260.47763062 C7.37418144 268.09899786 15.54097675 276.55952622 16.03854847 288.26728439 C16.03980575 289.44785038 16.04106302 290.62841637 16.0423584 291.84475708 C16.04447411 292.50406574 16.04658983 293.16337439 16.04876965 293.8426621 C16.05475767 296.05034738 16.05377035 298.25797531 16.05290222 300.46566772 C16.05593455 302.04931739 16.05945621 303.63296619 16.06343079 305.21661377 C16.07131505 308.62693122 16.07646295 312.03723823 16.07972145 315.44756317 C16.0856368 320.84370618 16.10218253 326.23978342 16.12106323 331.63589478 C16.12740053 333.48421856 16.13372616 335.33254238 16.1400404 337.18086624 C16.14320621 338.10649069 16.14637202 339.03211514 16.14963377 339.98578882 C16.19168803 352.54710398 16.22468098 365.10838841 16.23698425 377.66976929 C16.2453702 386.14461444 16.2678805 394.61929658 16.30633992 403.09406018 C16.32608221 407.57680811 16.33851122 412.05931245 16.33350563 416.54210663 C16.32885187 420.76115714 16.34270405 424.97974623 16.37051773 429.19870377 C16.37741722 430.74338644 16.37756944 432.28811695 16.37031746 433.832798 C16.33654359 441.83782201 16.32140019 448.42704418 20.91105652 455.26742554 C25.38562723 459.52372451 28.70938277 460.39028301 34.7674408 460.41459656 C36.60115234 460.42532951 36.60115234 460.42532951 38.47190857 460.4362793 C39.82890294 460.43911952 41.18589759 460.44183125 42.54289246 460.44442749 C43.97038437 460.45069323 45.39787466 460.45734013 46.82536316 460.46434021 C51.51537441 460.48537042 56.20538596 460.49574183 60.89543152 460.50570679 C62.51085172 460.50975477 64.12627174 460.51387171 65.74169159 460.51805687 C73.33159246 460.5371065 80.92148362 460.55133783 88.5114038 460.55966884 C97.26835626 460.56943988 106.02505587 460.59575674 114.78191924 460.63616973 C121.55316053 460.66634507 128.32432939 460.68113907 135.09563661 460.68444985 C139.13855094 460.6867988 143.18119506 460.69573868 147.22403717 460.72091103 C151.02934703 460.7442217 154.83420934 460.7484132 158.63957214 460.73814964 C160.03312419 460.73765489 161.42669849 460.74395765 162.8201828 460.75770569 C173.08774494 460.89718915 173.08774494 460.89718915 181.91105652 456.26742554 C185.97075537 451.0325507 187.03539306 447.35488652 187.0423584 440.82380676 C187.04447411 440.16676366 187.04658983 439.50972057 187.04876965 438.83276707 C187.05477063 436.62664372 187.05376941 434.42057756 187.05290222 432.21444702 C187.05593378 430.63418989 187.05945523 429.05393363 187.06343079 427.47367859 C187.07132247 424.06716756 187.07646581 420.66066703 187.07972145 417.25414848 C187.08563359 411.86173681 187.10217745 406.46939108 187.12106323 401.07701111 C187.12740087 399.23015122 187.13372649 397.38329128 187.1400404 395.53643131 C187.14320621 394.6114047 187.14637202 393.68637808 187.14963377 392.73332036 C187.19168314 380.17918951 187.22466583 367.62508888 187.23698425 355.07089233 C187.24537778 346.60372619 187.26791861 338.13672289 187.30633992 329.66963822 C187.32606175 325.19128307 187.33851817 320.71317115 187.33350563 316.23476982 C187.32884206 312.01654767 187.34275729 307.79878554 187.37051773 303.58065605 C187.37740162 302.03842682 187.37758644 300.49614974 187.37031746 298.95392227 C187.31043926 284.8137456 190.31936881 275.11308036 200.21720886 264.88412476 C203.71654763 261.41561717 207.26394445 258.00016348 210.83097839 254.60140991 C212.1293866 253.3358728 212.1293866 253.3358728 213.45402527 252.04476929 C214.23801697 251.29445435 215.02200867 250.5441394 215.82975769 249.77108765 C220.58012609 244.05671487 221.35342726 238.70992238 221.29873657 231.54502869 C221.30412211 230.6912298 221.30950765 229.83743091 221.31505638 228.95775932 C221.32931221 226.10974234 221.32223812 223.26219171 221.31510925 220.41415405 C221.32081405 218.36701078 221.32777873 216.31987068 221.33590698 214.2727356 C221.35384107 208.7210912 221.35266953 203.16960484 221.3469646 197.61794019 C221.34387321 192.98070893 221.34996463 188.34350806 221.35600334 183.70628113 C221.37004771 172.76561799 221.36848791 161.82503294 221.35710144 150.8843689 C221.34561924 139.60250488 221.35969793 128.32087856 221.38649791 117.03904587 C221.40865792 107.34712315 221.41529163 97.65527503 221.4094215 87.96332878 C221.4060516 82.17724696 221.40846946 76.39131752 221.42567253 70.60525703 C221.44114432 65.16409438 221.43718326 59.72328377 221.41836739 54.28213501 C221.41468224 52.28753158 221.41778779 50.29290206 221.42825317 48.29832268 C221.44146974 45.57074583 221.42990978 42.8443333 221.41226196 40.11680603 C221.42186697 39.33167541 221.43147198 38.54654478 221.44136804 37.73762232 C221.36755387 32.17471348 219.98910716 27.92754945 216.91105652 23.26742554 C211.71730069 18.32702365 207.3645852 18.11870349 200.47312927 18.12025452 C199.60162475 18.11657783 198.73012023 18.11290114 197.83220649 18.10911304 C194.90047611 18.09806547 191.96878117 18.09423054 189.03703308 18.09042358 C186.93959948 18.08415978 184.84216699 18.07751305 182.74473572 18.07051086 C177.03801765 18.05309432 171.33130796 18.04254745 165.62456989 18.03430533 C162.06039344 18.02915687 158.4962196 18.02308109 154.93204498 18.0167942 C143.78399375 17.99774083 132.63594915 17.98350965 121.48788476 17.97518224 C108.61285183 17.9654064 95.73799067 17.9390783 82.86301827 17.89868134 C72.91558314 17.86853926 62.9681973 17.85371519 53.02071738 17.85040122 C47.07753366 17.8480487 41.13453342 17.83906172 35.19139862 17.81394005 C29.60012248 17.79068764 24.00915098 17.78641483 18.41783905 17.79670143 C16.36636849 17.79719758 14.31488307 17.79085403 12.26345825 17.77714539 C9.46091248 17.75946615 6.65946473 17.76651319 3.85691833 17.77967834 C3.04669165 17.7687091 2.23646496 17.75773985 1.40168595 17.74643821 C-5.49656004 17.82457743 -10.10353407 19.70729235 -14.46394348 25.32992554 Z " fill="#FFFFFF" transform="translate(154.0889434814453,16.732574462890625)"/>
<path d="M0 0 C0.80011727 -0.00453111 1.60023455 -0.00906223 2.4245978 -0.01373065 C5.11463072 -0.02642483 7.80446248 -0.02475106 10.49452209 -0.02310181 C12.41948712 -0.02908388 14.34444974 -0.03588868 16.26940918 -0.04345703 C21.50488311 -0.06115577 26.7402917 -0.06581401 31.97579265 -0.0670886 C36.34229494 -0.06898531 40.70878193 -0.07634011 45.07527834 -0.08343279 C55.3742138 -0.09972867 65.67311429 -0.10460061 75.97206116 -0.10317993 C86.60635387 -0.10197781 97.24044384 -0.12309092 107.87468523 -0.15466726 C116.99661083 -0.18079077 126.11847006 -0.1915489 135.2404328 -0.19026911 C140.69223085 -0.18975837 146.14384877 -0.19550342 151.59560966 -0.21662521 C156.7215206 -0.23594184 161.84707833 -0.23617726 166.97300148 -0.22159195 C168.85640858 -0.21949464 170.7398374 -0.22425932 172.62320709 -0.23631287 C175.19038633 -0.25168124 177.75633482 -0.24251379 180.32348633 -0.22705078 C181.07241447 -0.23733791 181.82134261 -0.24762503 182.59296554 -0.25822389 C186.06390861 -0.21188017 187.88629675 0.00173712 190.65659428 2.17333031 C193.54029286 6.02299417 193.37111432 9.14681702 193.36567688 13.80131531 C193.368648 14.58762193 193.37161912 15.37392856 193.37468028 16.18406266 C193.38339 18.83336156 193.38487744 21.48261539 193.3863678 24.13192749 C193.39099437 26.02556455 193.39601882 27.91920067 193.40141296 29.81283569 C193.41455464 34.9678469 193.42098539 40.12284507 193.42542362 45.27787042 C193.42835157 48.49645365 193.43245585 51.7150333 193.4369278 54.93361473 C193.45060753 64.99777724 193.46027179 75.06193158 193.46412969 85.12610275 C193.46861143 96.75483818 193.48616275 108.38345613 193.51513028 120.01215583 C193.53672769 128.99309415 193.54683293 137.97399937 193.5481708 146.95496339 C193.54922025 152.32238569 193.5551576 157.68969763 193.57299042 163.05709267 C193.58943749 168.10578572 193.59164298 173.15428505 193.58285141 178.2029953 C193.58207922 180.05695552 193.58644759 181.91092601 193.59630966 183.76486015 C193.60897701 186.29433395 193.60318097 188.82311624 193.59272766 191.35258484 C193.60481227 192.4551217 193.60481227 192.4551217 193.61714101 193.57993203 C193.57462254 197.97393691 192.93232452 200.77324967 190.22523499 204.26742554 C187.15578432 205.80215087 183.93892334 205.41173773 180.57072449 205.40786743 C179.37183021 205.41232412 179.37183021 205.41232412 178.14871585 205.41687083 C175.45562455 205.42558096 172.76257757 205.42706802 170.06947327 205.42855835 C168.14465743 205.43318486 166.21984252 205.43820929 164.29502869 205.44360352 C159.05537657 205.45674495 153.81573729 205.46317578 148.57607126 205.46761417 C145.30523282 205.47054187 142.03439792 205.47464607 138.76356125 205.47911835 C128.5376182 205.49279738 118.31168319 205.50246226 108.08573163 205.50632024 C96.26681531 205.51080326 84.44801452 205.52836078 72.62913334 205.55732083 C63.50298897 205.57890946 54.37687716 205.589023 45.25070751 205.59036136 C39.79556842 205.59141134 34.34053786 205.59736013 28.88542557 205.61518097 C23.75547973 205.63161314 18.62572458 205.63384084 13.49576187 205.62504196 C11.61074311 205.624269 9.7257143 205.62864826 7.84072113 205.63850021 C5.27148878 205.65114304 2.70293964 205.64538503 0.13371277 205.63491821 C-0.99070262 205.64700282 -0.99070262 205.64700282 -2.13783348 205.65933156 C-5.25700345 205.62951931 -7.44806715 205.44683924 -10.20654488 203.93195724 C-13.51322561 200.42219813 -12.91793561 196.12283694 -12.90847778 191.60655212 C-12.91074334 190.81868551 -12.9130089 190.03081889 -12.91534311 189.21907753 C-12.92168957 186.5705466 -12.92085333 183.92206676 -12.92002869 181.27352905 C-12.92301975 179.37812229 -12.92642216 177.48271614 -12.9302063 175.58731079 C-12.93905532 170.43242234 -12.94138478 165.27755047 -12.94202209 160.12265515 C-12.94297047 155.82326199 -12.94664791 151.52387272 -12.95019418 147.22448105 C-12.95834199 137.08376458 -12.9607781 126.943057 -12.96006775 116.80233765 C-12.9594667 106.33170284 -12.97002325 95.86111952 -12.98581141 85.39049774 C-12.99887345 76.40870564 -13.00425222 67.42693039 -13.00361234 58.44512886 C-13.00335698 53.07722188 -13.00622908 47.70936063 -13.01679039 42.34146309 C-13.02644903 37.29443144 -13.02656594 32.24748947 -13.01927376 27.20045471 C-13.01822516 25.34607755 -13.02060701 23.49169486 -13.02663422 21.63732719 C-13.03431833 19.10987249 -13.02973323 16.58273027 -13.02200317 14.05528259 C-13.02971852 12.94939965 -13.02971852 12.94939965 -13.03758973 11.82117563 C-13.01279287 8.16316953 -12.94236461 5.29724221 -10.77476501 2.26742554 C-7.078642 -0.19665647 -4.27577841 -0.01763004 0 0 Z M5.22523499 18.26742554 C5.22523499 74.03742554 5.22523499 129.80742554 5.22523499 187.26742554 C61.32523499 187.26742554 117.42523499 187.26742554 175.22523499 187.26742554 C175.22523499 131.49742554 175.22523499 75.72742554 175.22523499 18.26742554 C119.12523499 18.26742554 63.02523499 18.26742554 5.22523499 18.26742554 Z " fill="#FFFFFF" transform="translate(165.77476501464844,50.732574462890625)"/>
<path d="M0 0 C10.30226472 8.25267055 10.30226472 8.25267055 11.21484375 13.5 C10.51241155 17.89020125 9.04502581 19.7110907 5.71484375 22.625 C0.93357183 23.24516498 -1.94485802 23.22747685 -5.92578125 20.4296875 C-7.14124162 19.46852145 -8.34404709 18.49118266 -9.53515625 17.5 C-27.22275082 3.73320323 -47.86755891 -1.58137207 -70.1328125 1.0859375 C-84.59478601 3.67114833 -97.11050407 8.88016374 -108.390625 18.40234375 C-111.6580805 21.08835649 -114.16393606 23.02869165 -118.47265625 23.375 C-122.28515625 22.625 -122.28515625 22.625 -125.28515625 20 C-127.50648106 16.25151437 -128.23651484 14.86287006 -127.28515625 10.625 C-117.22432773 -4.60996889 -95.95306837 -12.75650062 -78.87109375 -16.68359375 C-51.7556885 -21.91172744 -22.39019961 -16.72964109 0 0 Z " fill="#FFFFFF" transform="translate(314.28515625,137.375)"/>
<path d="M0 0 C6.28820294 3.67586247 10.77788024 8.65083786 13.0234375 15.64453125 C14.6770443 23.60081972 14.17298207 30.57978975 10.109375 37.6796875 C5.33557826 44.37690719 -0.42301581 48.33922751 -8.5 49.9375 C-16.09088425 50.79453532 -23.34281635 48.89815109 -29.6171875 44.4296875 C-34.84154258 39.60893067 -37.96330986 34.08163315 -38.87890625 27.01171875 C-39.2167812 18.43405467 -36.99514786 12.7536085 -32.375 5.6875 C-23.46390683 -2.83615433 -11.42808858 -5.18050401 0 0 Z M-18.4375 18 C-20.82041984 20.82588909 -20.82041984 20.82588909 -20.625 24.5 C-19.29172189 28.57390532 -18.27130118 29.92613937 -14.5 31.9375 C-10.56658433 32.01777379 -9.02956425 31.3991714 -6.0625 28.8125 C-4.21150237 25.95202436 -4.21150237 25.95202436 -4.5 22.3125 C-5.23633888 18.96931714 -5.23633888 18.96931714 -7.1875 17 C-11.69964918 14.92685038 -14.37080376 15.14466009 -18.4375 18 Z " fill="#FFFFFF" transform="translate(268.5,292.0625)"/>
<path d="M0 0 C3.13846285 3.13846285 4.12790275 4.86648817 4.6875 9.25 C4.22227662 13.0493243 2.94858379 14.59888434 0.3125 17.3125 C-2.51417884 18.72583942 -4.55133513 18.5744892 -7.6875 18.3125 C-10.1796875 16.921875 -10.1796875 16.921875 -12.5625 15.0625 C-23.69066127 6.81633259 -33.81592994 4.32614682 -47.6875 5.3125 C-56.54792568 6.79755726 -63.78965198 11.45691329 -70.9375 16.6875 C-74.23834734 18.6380007 -75.9162026 18.95442296 -79.6875 18.3125 C-82.38740662 16.51256226 -84.2293865 15.228727 -85.6875 12.3125 C-86.2906939 9.14573203 -86.18905601 7.12469715 -84.4765625 4.3515625 C-77.77898239 -3.85533144 -68.56780808 -8.34586735 -58.6875 -11.6875 C-58.02878906 -11.914375 -57.37007812 -12.14125 -56.69140625 -12.375 C-37.39717679 -17.79092406 -15.49430819 -12.12598033 0 0 Z " fill="#FFFFFF" transform="translate(296.6875,164.6875)"/>
<path d="M0 0 C2.66914925 1.8975983 4.44286134 3.51993476 6 6.421875 C6.47947482 10.33758607 6.2335463 13.13033309 4 16.421875 C0.30827956 18.88302196 -2.71223878 19.00426776 -7 18.421875 C-8.68756133 17.45755424 -10.35666496 16.45977081 -12 15.421875 C-15.561827 14.97664663 -17.31754465 14.99085057 -20.375 16.921875 C-24.22852786 19.12389092 -26.58254832 18.91270296 -31 18.421875 C-34.31327526 15.87320172 -35.8095103 13.81879949 -36.375 9.671875 C-35.88135121 5.39358551 -34.20768929 3.11512356 -31 0.421875 C-21.76822207 -5.9151929 -9.47508308 -5.54791049 0 0 Z " fill="#FFFFFF" transform="translate(271,186.578125)"/>
<path d="M0 0 C1.04285156 0.0007251 2.08570313 0.0014502 3.16015625 0.00219727 C4.87332031 -0.00070312 4.87332031 -0.00070312 6.62109375 -0.00366211 C8.40386719 0.03210938 8.40386719 0.03210938 10.22265625 0.06860352 C12.00542969 0.05216797 12.00542969 0.05216797 13.82421875 0.03540039 C22.55991429 0.10934815 22.55991429 0.10934815 25.53515625 2.45166016 C27.90531863 5.51277699 28.15531265 7.79251823 28.22265625 11.63110352 C27.00525661 14.51441846 26.0895869 16.09240418 23.42358398 17.74902344 C19.23659052 19.42707195 14.73763427 18.95805023 10.28515625 18.94360352 C9.29580078 18.9597168 8.30644531 18.97583008 7.28710938 18.99243164 C-1.85272005 18.99857813 -1.85272005 18.99857813 -5.77734375 15.63110352 C-7.35157128 12.48264846 -7.44662718 9.0389228 -6.77734375 5.63110352 C-3.72652139 0.84678778 -3.72652139 0.84678778 0 0 Z " fill="#FFFFFF" transform="translate(296.77734375,306.368896484375)"/>
<path d="M0 0 C1.18851563 -0.02384766 2.37703125 -0.04769531 3.6015625 -0.07226562 C4.74367187 -0.07033203 5.88578125 -0.06839844 7.0625 -0.06640625 C8.10535156 -0.06713135 9.14820313 -0.06785645 10.22265625 -0.06860352 C13.94991129 0.77835098 14.97698851 2.40793332 17 5.5625 C17.75651298 8.54961377 17.40212542 10.39576231 17 13.5625 C15.12984906 15.99369623 13.71861655 17.20319173 11 18.5625 C7.40178538 18.83002525 3.7945459 18.79408496 0.1875 18.8125 C-0.81087891 18.833125 -1.80925781 18.85375 -2.83789062 18.875 C-12.02064579 18.92394207 -12.02064579 18.92394207 -16 15.5625 C-18.10101595 12.8884797 -17.99846976 11.51965315 -17.875 8.0625 C-15.51230523 -1.38827907 -8.17532894 -0.07536908 0 0 Z " fill="#FFFFFF" transform="translate(205,306.4375)"/>
<path d="M0 0 C1.0415625 -0.02900391 2.083125 -0.05800781 3.15625 -0.08789062 C10.810467 -0.15151263 10.810467 -0.15151263 14.79296875 2.1171875 C17.33625493 5.16479269 17.55604263 7.38192975 17.625 11.3125 C16.5898201 15.19442461 16.04125138 16.03499908 12.625 18.3125 C8.51605384 18.80502411 4.38528053 18.72904419 0.25 18.75 C-1.45542969 18.79930664 -1.45542969 18.79930664 -3.1953125 18.84960938 C-11.52824385 18.90340177 -11.52824385 18.90340177 -15.6328125 16.0390625 C-18.26538026 11.91903493 -17.98699635 10.13197129 -17.375 5.3125 C-13.78366498 -1.35712218 -6.65519407 0.06131936 0 0 Z " fill="#FFFFFF" transform="translate(307.375,425.6875)"/>
<path d="M0 0 C1.0415625 -0.01611328 2.083125 -0.03222656 3.15625 -0.04882812 C12.77411315 -0.05497765 12.77411315 -0.05497765 16.625 3.3125 C18.20398053 6.47046107 18.44428171 9.91920636 17.625 13.3125 C15.88671875 16.0390625 15.88671875 16.0390625 12.625 18.3125 C8.42532351 19.03162791 4.31274465 18.9645043 0.0625 18.875 C-1.07380859 18.88595703 -2.21011719 18.89691406 -3.38085938 18.90820312 C-11.7165785 18.8344357 -11.7165785 18.8344357 -14.67163086 16.49194336 C-17.06189347 13.43362684 -17.30749311 11.16039284 -17.375 7.3125 C-13.72981258 -0.8891717 -7.88879606 -0.02422849 0 0 Z " fill="#FFFFFF" transform="translate(204.375,425.6875)"/>
<path d="M0 0 C1.08023437 -0.01095703 2.16046875 -0.02191406 3.2734375 -0.03320312 C7.93210476 0.00993268 11.09342507 0.04477461 15.1875 2.3828125 C17.73239075 5.44326301 18 7.61592097 18 11.5625 C16.41161066 15.13637602 15.28365642 16.37339572 12 18.5625 C8.0578318 19.05263484 4.09436806 18.97901039 0.125 19 C-1.50888672 19.04930664 -1.50888672 19.04930664 -3.17578125 19.09960938 C-11.16484656 19.15339133 -11.16484656 19.15339133 -15.21875 16.28515625 C-17.6845496 12.51615994 -17.6845496 12.51615994 -17.625 9.5625 C-17.63789063 8.923125 -17.65078125 8.28375 -17.6640625 7.625 C-14.90364273 -0.94853906 -7.51812889 -0.16597301 0 0 Z " fill="#FFFFFF" transform="translate(307,391.4375)"/>
<path d="M0 0 C1.63388672 -0.04930664 1.63388672 -0.04930664 3.30078125 -0.09960938 C11.28984656 -0.15339133 11.28984656 -0.15339133 15.34375 2.71484375 C17.8095496 6.48384006 17.8095496 6.48384006 17.75 9.4375 C17.76289063 10.076875 17.77578125 10.71625 17.7890625 11.375 C16.63652784 14.95463707 15.20442196 16.24594058 12.125 18.4375 C8.11196955 19.15533339 4.19079532 19.08975801 0.125 19 C-0.95523438 19.01095703 -2.03546875 19.02191406 -3.1484375 19.03320312 C-7.80710476 18.99006732 -10.96842507 18.95522539 -15.0625 16.6171875 C-17.60739075 13.55673699 -17.875 11.38407903 -17.875 7.4375 C-14.17547671 -0.8864274 -8.00821516 0.04234661 0 0 Z " fill="#FFFFFF" transform="translate(204.875,391.5625)"/>
<path d="M0 0 C1.08023437 -0.01095703 2.16046875 -0.02191406 3.2734375 -0.03320312 C7.93210476 0.00993268 11.09342507 0.04477461 15.1875 2.3828125 C17.73239075 5.44326301 18 7.61592097 18 11.5625 C16.41161066 15.13637602 15.28365642 16.37339572 12 18.5625 C8.0578318 19.05263484 4.09436806 18.97901039 0.125 19 C-1.50888672 19.04930664 -1.50888672 19.04930664 -3.17578125 19.09960938 C-11.16484656 19.15339133 -11.16484656 19.15339133 -15.21875 16.28515625 C-17.6845496 12.51615994 -17.6845496 12.51615994 -17.625 9.5625 C-17.63789063 8.923125 -17.65078125 8.28375 -17.6640625 7.625 C-14.90364273 -0.94853906 -7.51812889 -0.16597301 0 0 Z " fill="#FFFFFF" transform="translate(307,357.4375)"/>
<path d="M0 0 C1.63388672 -0.04930664 1.63388672 -0.04930664 3.30078125 -0.09960938 C11.28984656 -0.15339133 11.28984656 -0.15339133 15.34375 2.71484375 C17.8095496 6.48384006 17.8095496 6.48384006 17.75 9.4375 C17.76289063 10.076875 17.77578125 10.71625 17.7890625 11.375 C16.63652784 14.95463707 15.20442196 16.24594058 12.125 18.4375 C8.11196955 19.15533339 4.19079532 19.08975801 0.125 19 C-0.95523438 19.01095703 -2.03546875 19.02191406 -3.1484375 19.03320312 C-7.80710476 18.99006732 -10.96842507 18.95522539 -15.0625 16.6171875 C-17.60739075 13.55673699 -17.875 11.38407903 -17.875 7.4375 C-14.17547671 -0.8864274 -8.00821516 0.04234661 0 0 Z " fill="#FFFFFF" transform="translate(204.875,357.5625)"/>
<path d="M0 0 C1.62035156 -0.03577148 1.62035156 -0.03577148 3.2734375 -0.07226562 C11.11485945 -0.05774447 11.11485945 -0.05774447 15.2109375 2.8125 C17.00288943 5.5669414 17.68134501 6.88516199 17.625 10.125 C17.63789063 10.86878906 17.65078125 11.61257813 17.6640625 12.37890625 C16.58655518 15.92200385 15.2625047 16.78042627 12 18.5625 C7.99029193 19.1488145 4.04561717 19.12043247 0 19.0625 C-1.62035156 19.08570313 -1.62035156 19.08570313 -3.2734375 19.109375 C-7.88337586 19.08660987 -11.10315656 19.04256218 -15.2109375 16.84375 C-17.2922106 14.18989958 -17.67601373 12.90900084 -17.625 9.5625 C-17.63789063 8.716875 -17.65078125 7.87125 -17.6640625 7 C-17 4.5625 -17 4.5625 -15.2109375 2.28515625 C-10.26136239 -0.37027273 -5.52869829 -0.05607868 0 0 Z " fill="#FFFFFF" transform="translate(256,391.4375)"/>
<path d="M0 0 C1.49080078 -0.0309375 1.49080078 -0.0309375 3.01171875 -0.0625 C12.22462116 -0.11183281 12.22462116 -0.11183281 16.125 3.25 C17.27493366 5.54986731 17.3566929 7.06469088 17.4375 9.625 C17.49357422 10.78128906 17.49357422 10.78128906 17.55078125 11.9609375 C16.9531331 15.1739817 15.64806136 16.2158918 13.125 18.25 C10.34765625 18.76757812 10.34765625 18.76757812 7.1875 18.78125 C5.47433594 18.78898437 5.47433594 18.78898437 3.7265625 18.796875 C2.53804688 18.78140625 1.34953125 18.7659375 0.125 18.75 C-1.06351563 18.76546875 -2.25203125 18.7809375 -3.4765625 18.796875 C-4.61867187 18.79171875 -5.76078125 18.7865625 -6.9375 18.78125 C-7.98035156 18.77673828 -9.02320313 18.77222656 -10.09765625 18.76757812 C-13.5448741 18.12516411 -14.73057741 16.97003241 -16.875 14.25 C-17.77992577 10.20277294 -17.48765605 6.4169639 -15.5625 2.75 C-11.3546444 -0.99031609 -5.28671705 0.02721605 0 0 Z " fill="#FFFFFF" transform="translate(255.875,425.75)"/>
<path d="M0 0 C1.62035156 -0.02320313 1.62035156 -0.02320313 3.2734375 -0.046875 C7.90507027 -0.02400274 11.10041967 0.0086234 15.2109375 2.25390625 C17.18234721 4.72892936 17.67925811 5.80680722 17.625 8.9375 C17.63789063 9.67871094 17.65078125 10.41992188 17.6640625 11.18359375 C16.58488068 14.94803386 15.22192388 16.2383819 12 18.5 C7.98700656 19.23947551 4.06989902 19.19785022 0 19.125 C-1.62035156 19.15400391 -1.62035156 19.15400391 -3.2734375 19.18359375 C-11.09492678 19.13531295 -11.09492678 19.13531295 -15.2109375 16.24609375 C-17.00421856 13.49352479 -17.68133322 12.17666003 -17.625 8.9375 C-17.63789063 8.19371094 -17.65078125 7.44992187 -17.6640625 6.68359375 C-15.2382591 -1.29301862 -6.76566612 -0.09688305 0 0 Z " fill="#FFFFFF" transform="translate(256,357.5)"/>
</svg>
